<mxfile host="app.diagrams.net" modified="2022-02-04T21:53:03.912Z" agent="5.0 (Windows)" etag="BnWMa3ThIFxwodKhZoZo" version="16.5.2" type="github">
  <diagram id="C5RBs43oDa-KdzZeNtuy" name="Page-1">
    <mxGraphModel dx="604" dy="3011" grid="1" gridSize="10" guides="1" tooltips="1" connect="1" arrows="1" fold="1" page="1" pageScale="1" pageWidth="827" pageHeight="1169" math="0" shadow="0">
      <root>
        <mxCell id="WIyWlLk6GJQsqaUBKTNV-0" />
        <mxCell id="WIyWlLk6GJQsqaUBKTNV-1" parent="WIyWlLk6GJQsqaUBKTNV-0" />
        <mxCell id="eSUCYhGqmwST2YN_doYx-115" value="&lt;p style=&quot;margin: 0px ; margin-top: 4px ; text-align: center&quot;&gt;&lt;b&gt;Quadrado&lt;/b&gt;&lt;/p&gt;&lt;hr size=&quot;1&quot;&gt;&lt;hr size=&quot;1&quot;&gt;&lt;p style=&quot;margin: 0px ; margin-left: 4px&quot;&gt;&lt;br&gt;&lt;/p&gt;" style="verticalAlign=top;align=left;overflow=fill;fontSize=12;fontFamily=Helvetica;html=1;" vertex="1" parent="WIyWlLk6GJQsqaUBKTNV-1">
          <mxGeometry x="120" y="-2020" width="160" height="60" as="geometry" />
        </mxCell>
        <mxCell id="eSUCYhGqmwST2YN_doYx-117" value="" style="endArrow=block;endSize=16;endFill=0;html=1;rounded=0;exitX=0.75;exitY=0;exitDx=0;exitDy=0;entryX=0.25;entryY=1;entryDx=0;entryDy=0;" edge="1" parent="WIyWlLk6GJQsqaUBKTNV-1" source="eSUCYhGqmwST2YN_doYx-115" target="eSUCYhGqmwST2YN_doYx-126">
          <mxGeometry width="160" relative="1" as="geometry">
            <mxPoint x="207" y="-1818" as="sourcePoint" />
            <mxPoint x="290" y="-2090" as="targetPoint" />
          </mxGeometry>
        </mxCell>
        <mxCell id="eSUCYhGqmwST2YN_doYx-118" value="" style="endArrow=block;endSize=16;endFill=0;html=1;rounded=0;exitX=0.5;exitY=0;exitDx=0;exitDy=0;entryX=0.75;entryY=1;entryDx=0;entryDy=0;" edge="1" parent="WIyWlLk6GJQsqaUBKTNV-1" source="eSUCYhGqmwST2YN_doYx-128" target="eSUCYhGqmwST2YN_doYx-126">
          <mxGeometry width="160" relative="1" as="geometry">
            <mxPoint x="420" y="-2010" as="sourcePoint" />
            <mxPoint x="370" y="-2090" as="targetPoint" />
          </mxGeometry>
        </mxCell>
        <mxCell id="eSUCYhGqmwST2YN_doYx-119" value="component" style="endArrow=open;html=1;endSize=12;startArrow=diamondThin;startSize=14;startFill=0;edgeStyle=orthogonalEdgeStyle;align=left;verticalAlign=bottom;rounded=0;exitX=1;exitY=0.5;exitDx=0;exitDy=0;entryX=1;entryY=0.75;entryDx=0;entryDy=0;" edge="1" parent="WIyWlLk6GJQsqaUBKTNV-1" source="eSUCYhGqmwST2YN_doYx-129" target="eSUCYhGqmwST2YN_doYx-126">
          <mxGeometry x="-1" y="3" relative="1" as="geometry">
            <mxPoint x="540" y="-1955" as="sourcePoint" />
            <mxPoint x="490" y="-2090" as="targetPoint" />
            <Array as="points">
              <mxPoint x="520" y="-1971" />
              <mxPoint x="590" y="-1970" />
              <mxPoint x="590" y="-2113" />
            </Array>
          </mxGeometry>
        </mxCell>
        <mxCell id="eSUCYhGqmwST2YN_doYx-120" value="&lt;p style=&quot;margin: 0px ; margin-top: 4px ; text-align: center&quot;&gt;&lt;b&gt;Preenchimento&lt;/b&gt;&lt;br&gt;&lt;/p&gt;&lt;hr size=&quot;1&quot;&gt;&lt;hr size=&quot;1&quot;&gt;" style="verticalAlign=top;align=left;overflow=fill;fontSize=12;fontFamily=Helvetica;html=1;" vertex="1" parent="WIyWlLk6GJQsqaUBKTNV-1">
          <mxGeometry x="255" y="-1840" width="110" height="40" as="geometry" />
        </mxCell>
        <mxCell id="eSUCYhGqmwST2YN_doYx-121" value="&lt;p style=&quot;margin: 0px ; margin-top: 4px ; text-align: center&quot;&gt;&lt;b&gt;Luz&lt;/b&gt;&lt;br&gt;&lt;/p&gt;&lt;hr size=&quot;1&quot;&gt;&lt;hr size=&quot;1&quot;&gt;" style="verticalAlign=top;align=left;overflow=fill;fontSize=12;fontFamily=Helvetica;html=1;" vertex="1" parent="WIyWlLk6GJQsqaUBKTNV-1">
          <mxGeometry x="375" y="-1840" width="110" height="40" as="geometry" />
        </mxCell>
        <mxCell id="eSUCYhGqmwST2YN_doYx-122" value="&lt;p style=&quot;margin: 0px ; margin-top: 4px ; text-align: center&quot;&gt;&lt;b&gt;Sombreamento&lt;/b&gt;&lt;br&gt;&lt;/p&gt;&lt;hr size=&quot;1&quot;&gt;&lt;hr size=&quot;1&quot;&gt;" style="verticalAlign=top;align=left;overflow=fill;fontSize=12;fontFamily=Helvetica;html=1;" vertex="1" parent="WIyWlLk6GJQsqaUBKTNV-1">
          <mxGeometry x="495" y="-1840" width="110" height="40" as="geometry" />
        </mxCell>
        <mxCell id="eSUCYhGqmwST2YN_doYx-123" value="" style="endArrow=block;endSize=16;endFill=0;html=1;rounded=0;exitX=0.75;exitY=0;exitDx=0;exitDy=0;entryX=0.25;entryY=1;entryDx=0;entryDy=0;" edge="1" parent="WIyWlLk6GJQsqaUBKTNV-1" source="eSUCYhGqmwST2YN_doYx-120" target="eSUCYhGqmwST2YN_doYx-128">
          <mxGeometry width="160" relative="1" as="geometry">
            <mxPoint x="250" y="-2000" as="sourcePoint" />
            <mxPoint x="420" y="-1900" as="targetPoint" />
          </mxGeometry>
        </mxCell>
        <mxCell id="eSUCYhGqmwST2YN_doYx-124" value="" style="endArrow=block;endSize=16;endFill=0;html=1;rounded=0;exitX=0.5;exitY=0;exitDx=0;exitDy=0;entryX=0.5;entryY=1;entryDx=0;entryDy=0;" edge="1" parent="WIyWlLk6GJQsqaUBKTNV-1" source="eSUCYhGqmwST2YN_doYx-121" target="eSUCYhGqmwST2YN_doYx-128">
          <mxGeometry width="160" relative="1" as="geometry">
            <mxPoint x="392.5" y="-1860" as="sourcePoint" />
            <mxPoint x="460" y="-1900" as="targetPoint" />
          </mxGeometry>
        </mxCell>
        <mxCell id="eSUCYhGqmwST2YN_doYx-125" value="" style="endArrow=block;endSize=16;endFill=0;html=1;rounded=0;exitX=0.25;exitY=0;exitDx=0;exitDy=0;entryX=0.75;entryY=1;entryDx=0;entryDy=0;" edge="1" parent="WIyWlLk6GJQsqaUBKTNV-1" source="eSUCYhGqmwST2YN_doYx-122" target="eSUCYhGqmwST2YN_doYx-128">
          <mxGeometry width="160" relative="1" as="geometry">
            <mxPoint x="402.5" y="-1850" as="sourcePoint" />
            <mxPoint x="500" y="-1900" as="targetPoint" />
          </mxGeometry>
        </mxCell>
        <mxCell id="eSUCYhGqmwST2YN_doYx-126" value="&lt;p style=&quot;margin: 0px ; margin-top: 4px ; text-align: center&quot;&gt;&lt;i&gt;&amp;lt;&amp;lt;Abstract&amp;gt;&amp;gt;&lt;/i&gt;&lt;b&gt;&lt;br&gt;&lt;/b&gt;&lt;/p&gt;&lt;p style=&quot;margin: 0px ; margin-top: 4px ; text-align: center&quot;&gt;&lt;b&gt;FormaGeometria&lt;/b&gt;&lt;br&gt;&lt;/p&gt;&lt;hr size=&quot;1&quot;&gt;&lt;p style=&quot;margin: 0px ; margin-left: 4px&quot;&gt;- descricao: String&lt;br&gt;&lt;/p&gt;&lt;hr size=&quot;1&quot;&gt;" style="verticalAlign=top;align=left;overflow=fill;fontSize=12;fontFamily=Helvetica;html=1;" vertex="1" parent="WIyWlLk6GJQsqaUBKTNV-1">
          <mxGeometry x="244" y="-2180" width="216" height="90" as="geometry" />
        </mxCell>
        <mxCell id="eSUCYhGqmwST2YN_doYx-127" value="+ setDescricao(descricao: String): void" style="text;html=1;align=center;verticalAlign=middle;resizable=0;points=[];autosize=1;strokeColor=none;fillColor=none;" vertex="1" parent="WIyWlLk6GJQsqaUBKTNV-1">
          <mxGeometry x="244" y="-2110" width="220" height="20" as="geometry" />
        </mxCell>
        <mxCell id="eSUCYhGqmwST2YN_doYx-128" value="FormaDecorator" style="swimlane;fontStyle=1;align=center;verticalAlign=top;childLayout=stackLayout;horizontal=1;startSize=26;horizontalStack=0;resizeParent=1;resizeParentMax=0;resizeLast=0;collapsible=1;marginBottom=0;" vertex="1" parent="WIyWlLk6GJQsqaUBKTNV-1">
          <mxGeometry x="310" y="-2010" width="200" height="86" as="geometry" />
        </mxCell>
        <mxCell id="eSUCYhGqmwST2YN_doYx-129" value="- formaDecorada: FormaGeomtrica" style="text;strokeColor=none;fillColor=none;align=left;verticalAlign=top;spacingLeft=4;spacingRight=4;overflow=hidden;rotatable=0;points=[[0,0.5],[1,0.5]];portConstraint=eastwest;" vertex="1" parent="eSUCYhGqmwST2YN_doYx-128">
          <mxGeometry y="26" width="200" height="26" as="geometry" />
        </mxCell>
        <mxCell id="eSUCYhGqmwST2YN_doYx-130" value="" style="line;strokeWidth=1;fillColor=none;align=left;verticalAlign=middle;spacingTop=-1;spacingLeft=3;spacingRight=3;rotatable=0;labelPosition=right;points=[];portConstraint=eastwest;" vertex="1" parent="eSUCYhGqmwST2YN_doYx-128">
          <mxGeometry y="52" width="200" height="8" as="geometry" />
        </mxCell>
        <mxCell id="eSUCYhGqmwST2YN_doYx-131" value="+ getDescricao(): String" style="text;strokeColor=none;fillColor=none;align=left;verticalAlign=top;spacingLeft=4;spacingRight=4;overflow=hidden;rotatable=0;points=[[0,0.5],[1,0.5]];portConstraint=eastwest;" vertex="1" parent="eSUCYhGqmwST2YN_doYx-128">
          <mxGeometry y="60" width="200" height="26" as="geometry" />
        </mxCell>
      </root>
    </mxGraphModel>
  </diagram>
</mxfile>
